<?xml version="1.0" encoding="utf-8"?>
<!-- Generator: Adobe Illustrator 16.0.2, SVG Export Plug-In . SVG Version: 6.00 Build 0)  -->
<!DOCTYPE svg PUBLIC "-//W3C//DTD SVG 1.1//EN" "http://www.w3.org/Graphics/SVG/1.1/DTD/svg11.dtd">
<svg version="1.1" xmlns="http://www.w3.org/2000/svg" xmlns:xlink="http://www.w3.org/1999/xlink" x="0px" y="0px"
	 width="929.313px" height="300px" viewBox="0 0 929.313 300" enable-background="new 0 0 929.313 300" xml:space="preserve">
<g id="Layer_1" display="none">
	<rect display="inline" fill="#2391C0" width="929.313" height="300"/>
</g>
<g id="head">
	<path fill="#F8C110" d="M213.484,165.281c0,21.498-7.219,46.279-29.483,46.279c-22.265,0-33.093-17.426-33.093-38.924
		c0-21.496,3.608-38.921,25.874-38.921C199.045,133.715,213.484,143.785,213.484,165.281z"/>
	<path fill="#F8C110" d="M201.269,231.166h-34.118v-16.854v-13.23l32.323,4.182c0,0-0.65,5.609-0.633,9.869
		C198.855,219.203,201.269,231.166,201.269,231.166z"/>
</g>
<g id="hair">
	<path fill="#795548" d="M147.966,185.262c-0.471-13.068-14.381-41.854-6.103-51.947c12.083-14.733,58.332,1.812,75.793-5.718
		c4.977-2.146,16.058-14.609,16.058-14.609s-1.397,29.711-8.028,36.137c-7.29,7.063-31.842,1.162-39.824,7.422
		c-2.436,1.908-4.589,8.236-5.139,11.291c-0.602,3.344-0.494,7.623-0.494,7.623s-2.71-5.293-6.176-4.248
		c-2.604,0.783-2.322,1.961-2.668,4.596c-0.325,2.471-0.556,7.803-0.78,12.98c-0.48,11.041-12.094,9.291-12.094,9.291l-16.24,0.162
		C142.271,198.242,148.27,193.717,147.966,185.262z"/>
	<line fill="none" x1="60.05" y1="307.098" x2="82.689" y2="307.098"/>
	<path fill="#CCCCCC" d="M164.764,236.819"/>
	<path fill="#3D50A2" d="M63.994,256.565l-2.805,18.864c0,0,41.199,12.932,55.124,9.976c6.549-1.395,24.079-14.249,24.079-14.249
		s2.489,8.225,2.633,11.451c0.15,3.361-1.796,17.393-1.796,17.393h85.555c0.458-8.604,11.342-54.218,7.983-60.343
		c-6.449-11.794-16.338-12.259-28.489-17.324c-0.68-0.279-5.414-1.481-6.317-1.671c-4.91,2.847-10.484,3.519-17.647,3.519
		c-5.724,0-10.424-1.117-14.843-3.025c0,0-1.927-0.109-2.981,0.013c-3.154,0.365-16.99,4.574-22.021,7.722
		c-8.614,5.4-23.532,27.694-32.716,31.968C97.422,266.581,63.994,256.565,63.994,256.565z"/>
	<rect x="14.543" y="244.72" fill="#FFFFFF" width="26.64" height="31.988"/>
	<path fill="#F8C110" d="M56.537,255.992c-2.082-0.678-5.531-3.292-8.152-3.183c-1.194,0.049-3.336,1.436-3.926,2.69
		c-0.6,1.279-0.726,3.476-0.516,5.306c0.314,2.75,2.15,8.372,3.802,10.551c1.503,1.983,4.253,1.859,6.677,2.596
		c1.027,0.312,6.768,1.478,6.768,1.478l3.309-18.696C64.498,256.733,58.437,256.611,56.537,255.992z"/>
	<path fill="#FFFFFF" d="M38.941,269.427h7.287v-15.301h-6.715c-0.027-1.111-0.087-2.225-0.191-3.336H49.57v22.08H38.932
		C38.905,271.723,38.911,270.575,38.941,269.427z"/>
	<path fill="#F8C110" d="M45.414,267.356c0,2.908,1.861,5.268,4.156,5.268l0,0c2.295,0,4.156-2.359,4.156-5.268v-4.317
		c0-2.908-1.861-5.268-4.156-5.268l0,0c-2.295,0-4.156,2.359-4.156,5.268V267.356z"/>
	<path opacity="0.4" fill="#FFFFFF" d="M33.743,227.231c0,0,3.487-7.256,3.568-10.125c0.097-3.431-3.643-9.18-3.568-12.61
		c0.065-2.979,3.568-10.615,3.568-10.615s-6.922,5.404-7.722,8.881c-0.931,4.04,2.623,12.319,2.777,16.594
		c0.136,3.759-1.377,14.908-1.377,14.908L33.743,227.231z"/>
	<path opacity="0.4" fill="#FFFFFF" d="M25.391,232.51c0,0,2.016-4.191,2.062-5.85c0.056-1.982-2.104-5.306-2.062-7.288
		c0.037-1.721,2.062-6.133,2.062-6.133s-3.999,3.123-4.462,5.131c-0.538,2.334,1.516,7.118,1.605,9.589
		c0.078,2.173-0.795,8.614-0.795,8.614L25.391,232.51z"/>
	<path fill="#E71A65" d="M183.8,291.852l16.16-71.189c0,0-12.053,2.598-16.326,2.681c-4.727,0.092-16.164-2.297-16.164-2.297"/>
	<path fill="#3D50A2" d="M225.095,229.25c0,0,46.801,22.381,59.53,19.197c12.438-3.11,39.688-32.059,39.688-32.059l11.489,15.204
		c0,0-34.323,38.345-48.483,43.815c-14.674,5.668-54.447-9.645-54.447-9.645"/>
	<path fill="#F8C110" d="M338.239,227.003c4.749-3.974,17.262-9.22,19.199-15.61c0.895-2.942,1.958-9.935,0.118-12.452
		c-1.172-1.604-7.801-3.571-9.584-3.59c-2.654-0.031-6.922,7.013-9.327,8.122c-1.91,0.878-9.321-4.584-10.847-3.045
		c-1.228,1.239,0.938,8.12,0.209,9.8c-0.678,1.563-3.801,6.414-3.801,6.414l11.104,14.047
		C335.312,230.688,337.345,227.752,338.239,227.003z"/>
</g>
<g id="head2" display="none">
	
		<ellipse transform="matrix(0.9913 -0.1315 0.1315 0.9913 -4.0841 71.1017)" display="inline" fill="#666666" cx="536.509" cy="66.485" rx="28.557" ry="45.619"/>
	<path display="inline" fill="#666666" d="M559.719,137.102h-36.014c0,0,2.594-13.042,2.594-17.392
		c0-5.623-2.594-22.494-2.594-22.494h36.014V137.102z"/>
</g>
<g id="shirt2" display="none">
	<path display="inline" fill="#333333" d="M584.395,165.31h-91.601l33.467-46.963c2.972,9.431,8.284,15.313,15.119,15.313
		c6.842,0,15.366-6.45,18.339-15.89L584.395,165.31z"/>
</g>
<g id="hair2" display="none">
	<path display="inline" fill="#4D4D4D" d="M517.416,36.993c3.277,1.063,6.563,8.428,9.746,9.746c2.133,0.883,7.213-1.117,9.232,0
		c1.792,0.988,2.681,5.758,4.361,6.924c1.561,1.082,6.239,0.066,7.438,1.541c1.174,1.441-1.684,6.646,0,7.436
		c1.814,0.85,5.082-3.438,6.156-5.129c0.816-1.287,0.297-5.016,1.538-5.898c1.311-0.932,5.181-0.521,6.412,0.512
		c1.369,1.152,1.921,5.141,1.796,6.926c-0.117,1.662-2.061,4.566-2.565,6.156c-0.801,2.523-2.882,7.754-2.308,10.338
		c0.432,1.949,4.451,4.379,4.873,6.332c0.617,2.855-1.471,8.713-2.664,11.379c-0.691,1.547-4.406,3.936-3.89,5.549
		c1.651,5.148,15.075,8.104,20.403,7.184c3.414-0.59,9.886-5.373,10.771-8.723c0.9-3.4-5.662-9.631-5.13-13.109
		c0.419-2.73,6.792-5.852,6.927-8.611c0.176-3.623-8.033-8.508-7.951-12.135c0.075-3.398,7.519-7.656,7.951-11.027
		c0.428-3.342-4.967-9.199-4.873-12.568c0.081-2.955,5.881-7.994,4.873-10.771c-1.409-3.883-11.667-4.584-14.877-7.182
		c-2.521-2.043-5.037-8.832-7.951-10.259c-4.088-2.004-14.007,1.748-18.209,0c-3.695-1.538-7.475-10.133-11.285-11.355
		c-4.66-1.495-14.121,4.234-18.467,6.482c-2.166,1.119-5.523,5.414-7.951,5.643c-3.371,0.316-9.111-6.754-12.312-5.643
		c-3.46,1.201-6.634,9.383-6.668,13.044c-0.032,3.363,3.896,9.387,5.899,12.09c1.512,2.041,5.008,6.184,7.438,6.926
		C508.864,39.62,514.699,36.11,517.416,36.993z"/>
</g>
<g id="head3">
	<path fill="#F79810" d="M851.153,233.591l-33.468-3.655c0,0,1.095-9.929,1.097-13.254c0-3.357-1.097-13.381-1.097-13.381h31.12
		L851.153,233.591z"/>
	
		<ellipse transform="matrix(0.9219 -0.3875 0.3875 0.9219 -3.419 329.9033)" fill="#F79810" cx="816.306" cy="173.429" rx="22.635" ry="37.235"/>
</g>
<g id="shirt3">
	<path fill="#F8EB39" d="M874.218,300h-71.239c-0.994-2.405-0.231-2.593-3.597-7.913c-3.109-4.912-7.091-9.834-7.19-16.455
		c-0.115-7.786,2.466-13.278,1.746-15.016c-1.671-4.044-32.104-3.693-39.614-6.638c-15.612-6.104-52.651-42.862-52.651-42.862
		l8.752-12.313c0,0,35.639,30.136,49.985,34.661c6.039,1.903,19.161,1.778,25.24,0c6.429-1.886,18.197-9.241,24.769-10.493
		c2.028-0.384,4.575-0.602,7.399-0.692c2.644,4.624,10.926,7.988,20.729,7.988c7.074,0,9.657-2.113,13.604-4.817
		c3.079,0.769,9.519,2.229,10.854,3.907C870.938,239.351,877.248,279.53,874.218,300z"/>
	<path fill="#F79810" d="M698.938,207.585c-4.416-3.555-16.002-8.308-17.849-13.971c-0.853-2.607,0.867-8.766,2.539-10.972
		c1.065-1.406,4.393-3.109,6.036-3.109c2.447-0.002,6.42,3.61,8.648,4.613c1.769,0.793,5.841,1.311,7.262,2.685
		c1.144,1.105,1.949,4.542,2.638,6.032c0.64,1.387,2.643,5.692,2.643,5.692l-9.183,12.313
		C701.672,210.868,699.77,208.255,698.938,207.585z"/>
</g>
<g id="hair3">
	<path d="M801.722,149.107c7.684,4.722,27.842,11.872,32.15,19.793c8.497,15.628-10.594,51.109-1.672,66.499
		c4.999,8.622,28.252,18.739,37.197,14.345c7.934-3.896,9.128-14.801,5.961-26.746c-3.082-11.63-10.338-24.642-13.264-32.511
		c-10.955-29.469-2.39-48.794-12.01-57.377c-4.79-4.272-15.683-7.462-27.486-6.813c-17.082,0.939-29.559,6.941-30.722,14.592
		C791.393,144.076,798.976,147.419,801.722,149.107z"/>
	<ellipse fill="#FFFFFF" cx="513.255" cy="88.19" rx="115.316" ry="65.714"/>
	<polyline fill="#FFFFFF" points="420.23,126.959 407.021,97.775 360.928,141.085 	"/>
	<text transform="matrix(1 0 0 1 468.5527 97.7754)" fill="#B39CCA" font-family="'MyriadPro-Regular'" font-size="148.4997">...</text>
	<polyline fill="#FFFFFF" points="606,126.959 618.732,97.775 663.158,141.085 	"/>
</g>
<g id="computer">
</g>
</svg>
